<svg xmlns="http://www.w3.org/2000/svg" width="14" height="18" viewBox="0 0 14 18" fill="none">
  <g clip-path="url(#clip0_9044_2891)">
    <path d="M7 0L0 3.23077V10.6154C0 13.8768 3.71887 15.6923 7 18C10.2811 15.6923 14 13.8768 14 10.6154V3.23077L7 0ZM10.7616 5.53846C10.9156 5.54477 11.0633 5.60156 11.1818 5.69892C11.3239 5.8161 11.4133 5.98468 11.4306 6.16766C11.447 6.35065 11.3896 6.53273 11.2711 6.67426L6.60441 12.2127C6.36562 12.4958 5.94452 12.5445 5.64646 12.3227L2.84646 10.2458C2.53748 10.0168 2.47457 9.58232 2.70701 9.27673C2.8182 9.1298 2.98409 9.03244 3.1673 9.00719C3.35142 8.98105 3.53826 9.02793 3.68684 9.1388L5.95456 10.8209L10.1956 5.78736C10.3141 5.64674 10.4855 5.5584 10.6705 5.54127C10.7006 5.53857 10.7306 5.53756 10.7616 5.53846Z" fill="black"></path>
  </g>
  <defs>
    <clipPath id="clip0_9044_2891">
      <rect width="14" height="18" fill="white"></rect>
    </clipPath>
  </defs>
</svg>