 <svg xmlns="http://www.w3.org/2000/svg" width="22" height="27" viewBox="0 0 22 27" fill="none" class="el-cart-svg">
              <path d="M2 26.6667C1.46667 26.6667 1 26.4667 0.6 26.0667C0.2 25.6667 0 25.2 0 24.6667V7.33333C0 6.8 0.2 6.33333 0.6 5.93333C1 5.53333 1.46667 5.33333 2 5.33333H5.66667V5C5.66667 3.6 6.15 2.41667 7.11667 1.45C8.08333 0.483333 9.26667 0 10.6667 0C12.0667 0 13.25 0.483333 14.2167 1.45C15.1833 2.41667 15.6667 3.6 15.6667 5V5.33333H19.3333C19.8667 5.33333 20.3333 5.53333 20.7333 5.93333C21.1333 6.33333 21.3333 6.8 21.3333 7.33333V24.6667C21.3333 25.2 21.1333 25.6667 20.7333 26.0667C20.3333 26.4667 19.8667 26.6667 19.3333 26.6667H2ZM7.66667 5.33333H13.6667V5C13.6667 4.15553 13.3778 3.44445 12.8 2.86667C12.2222 2.28889 11.5111 2 10.6667 2C9.8222 2 9.11113 2.28889 8.53333 2.86667C7.95553 3.44445 7.66667 4.15553 7.66667 5V5.33333ZM14.6667 11.3333C14.9555 11.3333 15.1945 11.2389 15.3833 11.05C15.5722 10.8611 15.6667 10.6222 15.6667 10.3333V7.33333H13.6667V10.3333C13.6667 10.6222 13.7611 10.8611 13.95 11.05C14.1389 11.2389 14.3778 11.3333 14.6667 11.3333ZM6.66667 11.3333C6.95553 11.3333 7.19447 11.2389 7.38333 11.05C7.5722 10.8611 7.66667 10.6222 7.66667 10.3333V7.33333H5.66667V10.3333C5.66667 10.6222 5.76113 10.8611 5.95 11.05C6.13887 11.2389 6.3778 11.3333 6.66667 11.3333Z" fill="black"></path>
            </svg>