<svg xmlns="http://www.w3.org/2000/svg" width="21" height="21" viewBox="0 0 21 21" fill="none">
                  <path d="M18.135 3.70499C18.1725 3.47249 18.0975 3.23249 17.925 3.06C17.76 2.88752 17.5125 2.81249 17.28 2.85003C14.505 3.2925 12.945 2.64 11.0925 0.270023C10.8075 -0.0900078 10.1925 -0.0900078 9.90752 0.270023C8.05499 2.64 6.49498 3.2925 3.72002 2.85003C3.48752 2.80503 3.24001 2.88752 3.07498 3.06C2.9025 3.23249 2.82751 3.47249 2.86501 3.70499C3.30748 6.48 2.65498 8.04001 0.285004 9.89249C0.105011 10.035 0 10.2525 0 10.485C0 10.7175 0.105011 10.935 0.285004 11.0775C2.65498 12.93 3.30748 14.49 2.86501 17.265C2.82751 17.4975 2.9025 17.7375 3.07498 17.91C3.24751 18.0825 3.48752 18.165 3.72002 18.12C6.49498 17.6775 8.05499 18.33 9.90752 20.7C10.05 20.88 10.2675 20.985 10.5 20.985C10.7325 20.985 10.95 20.88 11.0925 20.7C12.945 18.33 14.505 17.6775 17.28 18.12C17.5125 18.1575 17.7525 18.0825 17.925 17.91C18.0975 17.7375 18.1725 17.4975 18.135 17.265C17.6925 14.49 18.345 12.93 20.715 11.0775C20.895 10.935 21 10.7175 21 10.485C21 10.2525 20.895 10.035 20.715 9.89249C18.345 8.04001 17.6925 6.48 18.135 3.70499ZM14.0325 9.105L10.2075 12.93C10.065 13.065 9.87749 13.1475 9.67502 13.1475C9.48001 13.1475 9.285 13.065 9.1425 12.93L6.96748 10.755C6.67502 10.455 6.67502 9.98249 6.96748 9.69002C7.25999 9.39751 7.74001 9.39751 8.03252 9.69002L9.67502 11.34L12.9675 8.04001C13.26 7.7475 13.74 7.7475 14.0325 8.04001C14.325 8.33252 14.325 8.81249 14.0325 9.105Z" fill="white"></path>
                </svg>